<svg xmlns="http://www.w3.org/2000/svg" viewBox="0 0 944.18 642.04"><defs><style>.cls-1{fill:#dadad2;}</style></defs><title>Asset 1</title><g id="Layer_2" data-name="Layer 2"><g id="Group_1" data-name="Group 1"><g id="_310906" data-name=" 310906"><path id="Path_1" data-name="Path 1" class="cls-1" d="M621.25,12c-1.77,6.64-3.69,13.58-4.28,15.42l-1,3.39-4.65.52c-2.51.3-6.79,1-9.52,1.62s-5.31,1-5.68.74-4.43-5.83-8.93-12.47-8.56-12.25-8.85-12.54c-.37-.45-19.41,7.6-20.44,8.63-.15.07,1.62,7.08,3.91,15.5s4,15.42,3.84,15.5c-1.92,1.4-9.89,7.75-12.33,9.89L550,61,535.8,54.17,521.56,47.3l-6.27,8.86A104.71,104.71,0,0,0,509,65.53c0,.3,5,5.46,11.06,11.59l11.07,11.06-2.43,5.9a87.38,87.38,0,0,0-3.4,9.37c-1.1,4.06-.14,3.77-17,5-5.46.45-11.36,1-13,1.18l-3,.37-1,10.63c-.52,5.9-.82,10.92-.52,11.14s6.86,2.21,14.76,4.35,14.76,4.06,15.2,4.36.81,1.77.81,3.24a72.18,72.18,0,0,0,1.4,9.38,41.07,41.07,0,0,1,1.11,7.15c-.22.3-6,4.43-12.84,9.15s-12.55,8.93-12.55,9.3c0,.81,8.05,18.45,8.71,19.19.44.44,22.58-4.87,29.37-7.09,1.25-.37,2.21.45,5.68,4.87a75.94,75.94,0,0,0,6.35,7.53,11.09,11.09,0,0,1,2.28,2.73c0,.3-3,6.94-6.64,14.68S537.79,235,537.94,235c1.84,1.63,17.34,12.18,17.93,12.18.44,0,5.68-4.95,11.73-11l11-11,3.76,1.7c2.07.88,6.12,2.36,8.93,3.32a43.63,43.63,0,0,1,5.75,2.14c.3.3,1,7.3,1.7,15.64s1.4,15.27,1.7,15.57,5.24,1,11.07,1.47c8.63.82,10.63.89,10.92.08.22-.52,2.14-7.38,4.28-15.2l3.84-14.17,2.51-.52c1.4-.3,5.9-1.1,10.11-1.84l7.52-1.4,9.08,13.06c8.71,12.54,9.08,13,10.85,12.17,1-.44,5.53-2.5,10.11-4.64l8.26-3.84-3.69-13.87c-2-7.6-3.84-14.54-4.06-15.43-.3-1.25.37-2.14,3.54-4.35a100.07,100.07,0,0,0,7.75-6.49l3.84-3.62,14.46,6.79c7.9,3.76,14.54,6.72,14.69,6.57,1-1.18,11.65-16.46,11.88-17.12s-4.65-6-10.63-12.32C717,178.8,715.85,177.32,716.59,176c.44-.81,2-4.94,3.54-9.22l2.73-7.75,9.08-.81c5-.52,12.17-1.11,15.86-1.4l6.71-.52.89-8.93c.44-4.94.81-10,.81-11.21v-2.22l-15.12-4.05c-13.07-3.47-15.2-4.21-15.43-5.54-.14-.81-.81-4.8-1.4-8.85a76.55,76.55,0,0,0-1.62-8.49c-.3-.81,3.25-3.61,12.84-10.26l13.21-9.07-4.58-9.89c-2.8-6.12-4.94-9.81-5.61-9.89s-7.3,1.7-14.9,3.69c-14.09,3.76-16.09,4.13-16.09,3.1,0-.37-2.65-3.84-5.9-7.82l-6-7.16L702,46.27c3.54-7.38,6.57-13.8,6.79-14.24S705,28.27,700,24.8l-9-6.35L679.76,29.59,668.55,40.8,662,38.15c-3.54-1.4-7.9-2.95-9.52-3.39-3.54-1-3.17.51-4.8-20.89l-.89-11.58-3-.45C640.8,1.48,626,0,624.93,0,624.72,0,623,5.39,621.25,12Zm13.94,43.75a78.51,78.51,0,0,1,62.35,52.09,76.92,76.92,0,0,1,4.06,25.39,75.82,75.82,0,0,1-17,48.55,78.27,78.27,0,0,1-41.76,27.16c-8.41,2.29-25.68,2.8-34.24,1-29.74-6.05-52.91-27.52-60.87-56.52-2.66-9.44-3.32-24.64-1.55-34.09A78.07,78.07,0,0,1,569.38,76.6a76.91,76.91,0,0,1,65.81-20.88Z"/><path id="Path_2" data-name="Path 2" class="cls-1" d="M182.58,78.74c-.22.73-2.88,9.74-6,20.07s-5.53,18.74-5.53,18.89-2.44.37-5.32.66-9,1.26-13.5,2.22-8.11,1.7-8.19,1.62-5.16-7.38-11.36-16.31S121.26,89.36,121,89.07c-.44-.45-26.12,10.55-27.3,11.66-.15.22,2,9.3,4.72,20.36,4.35,17.27,4.87,20.14,3.91,20.66a152.53,152.53,0,0,0-14,10.78c-2.14,1.91-4.43,3.91-5.09,4.42-1,.81-3.84-.22-19.77-7.52-10.19-4.65-18.82-8.49-19.19-8.49S29,160.27,27,163.59c-.36.67,4,5.39,14.17,15.35L55.81,193.4l-2.44,5.32c-1.32,2.95-3.54,8.48-4.87,12.32s-2.43,7.08-2.5,7.23-9.6,1-21.1,2.07S3.72,222.48,3.5,222.7C3.05,223.21-.34,251,0,251.25c.15.08,9.37,2.44,20.51,5.32l20.29,5.16.52,5.46A173.74,173.74,0,0,0,44.6,286c.37,1.4-1.77,3.1-16.83,13.21C18.33,305.64,10.28,311.1,10,311.39c-.52.44,9.89,24.5,11.22,26,.22.3,9.74-1.91,21.1-4.94S62.89,327,63,327.11c1.1,1.77,10.18,13.06,13,16.16l3.77,4.2L70.27,366l-9.52,18.6L63,386.36c1.25,1,6.64,4.8,11.95,8.41l9.67,6.64,15.28-14.53c8.33-8.05,15.79-14.54,16.45-14.54a46,46,0,0,1,6.72,2.51c3,1.25,8.19,3.1,11.43,4.06l5.9,1.7.45,3.69c.3,2,.88,11,1.4,19.92s1.18,16.68,1.47,17.12c.52.88,28.48,3.54,29.22,2.8.22-.22,2-6.05,4.06-12.84,7.75-26.34,8-26.79,9.74-27.15.88-.15,4.57-.74,8.12-1.19s8.85-1.47,11.66-2.21l5.16-1.25,5,7.08,11.8,16.9c5.61,8,7.09,9.74,8.27,9.37,1.84-.59,25.09-11.29,25.6-11.73.22-.22-1.85-9.15-4.58-19.78S253,361.72,253,361.5s2.59-2.44,5.76-4.73,7.82-6.2,10.48-8.56L274,344l7.38,3.32c4.05,1.84,12.61,5.83,19,8.78l11.66,5.39,8.86-11.88,8.85-12L315.1,322.9l-14.76-14.83,2.88-5.9a120.85,120.85,0,0,0,4.8-12c1.1-3.32,2.21-6.28,2.51-6.42s9.88-1.18,21.4-2.22,21-2,21.1-2.06,2.87-25.83,2.87-27.38c0-1.25-2.65-2.06-20.29-6.64l-20.29-5.24-.88-7.6c-.45-4.2-1.4-10-2-12.69s-1.18-5.24-1.18-5.46,8-5.68,17.71-12.25,17.71-11.95,17.71-12.1-2.66-6-5.9-13.06c-4.65-10.26-6.12-12.76-7.16-12.62-.73.15-10.11,2.59-20.8,5.39s-19.48,5.09-19.63,4.94-1.7-2.28-3.54-4.8-5.61-6.86-8.34-9.74l-4.95-5.31,9.37-18.3c5.1-10.11,9.3-18.67,9.3-19.11,0-.74-22.35-16.38-23.46-16.38-.59,0-10.4,9.15-27.15,25.31L240.58,130l-7.82-3a132,132,0,0,0-12.55-4.28l-4.72-1.26-.37-4.13c-.3-2.21-.88-11.29-1.33-20.07s-1.1-16.38-1.4-16.75-6.56-1.25-14-1.84C181.77,77.26,183,77.19,182.58,78.74Zm21,72.38c40.36,9.52,69.21,38.15,77.47,77,2.14,10,2.37,27.23.45,37.27-8,43.16-42,77.11-85.74,85.81-33.65,6.64-69-3.46-92.76-26.63A96.49,96.49,0,0,1,83.18,297a91.83,91.83,0,0,1-9.07-29.37c-4.65-31.28,6.79-64,30.62-87.58,15.2-15,36.23-25.83,57.85-29.89,8.71-1.55,32.47-1,41,1Z"/><path id="Path_3" data-name="Path 3" class="cls-1" d="M458.91,191c-2.21,8.19-4.42,14.9-5.09,15.42a7.37,7.37,0,0,1-3.76,1,65.5,65.5,0,0,0-9.15,1.33L434.49,210l-8.93-13.14c-4.94-7.3-9.37-13.06-9.81-12.91s-5,2.29-10.26,4.57c-8.26,3.77-9.37,4.43-8.93,5.76.22.81,2.07,7.75,4,15.42l3.54,13.95-4.13,3a97.26,97.26,0,0,0-7.68,6.35l-3.54,3.32-4.57-2.07c-2.59-1.1-8.86-4.13-14-6.71s-9.74-4.72-10.11-4.72-3.54,4.05-7.09,8.92l-6.42,8.93L357.75,252,369,263.21l-2.07,4.72c-1,2.58-2.73,6.86-3.62,9.52-1.47,4.35-1.84,4.8-3.76,5L344,283.57c-7.45.59-13.65,1.18-13.8,1.33-.3.3-2.65,21.55-2.36,21.84.07.07,6.94,2.07,15.35,4.35l15.2,4.21.51,4.87a85,85,0,0,0,1.55,9.52c.59,2.58,1,4.94,1,5.24s-5.83,4.5-12.92,9.3-12.91,9.07-12.91,9.37c0,.59,8,19,8.63,19.7.08.15,6.87-1.4,15-3.47s15-3.84,15.35-3.84,2.14,1.92,3.91,4.21,4.65,5.83,6.35,7.67l3.17,3.4-6.93,14.46-6.94,14.39,8.56,6.13c4.65,3.39,8.85,6.34,9.22,6.49s5.68-4.72,11.88-10.85l11.14-11.14,3.32,1.48c1.85.88,6,2.5,9.23,3.68,3.61,1.26,6,2.59,6.42,3.4s.88,7.9,1.4,15.86,1.11,14.61,1.33,14.61,4.8.52,10,1.11S456.77,442,457.43,442c.82,0,2.07-3.47,5.1-14.24,2.14-7.75,4.2-14.76,4.57-15.5s1.55-1.26,3.39-1.26a77.7,77.7,0,0,0,9.74-1.4,68.3,68.3,0,0,1,7.09-1.25s3.91,5.83,8.71,12.84,8.55,12.91,8.41,13.06-4.95-1.85-10.7-4.5S483.11,425,483,425c-.51,0-12.32,17.56-12.32,18.22,0,.3,5,5.39,11.14,11.22,7.75,7.45,11,11,10.7,11.8s-1.7,5-3.32,9.67c-2.21,6.27-3.32,8.56-4.28,8.71-.73.07-7.74.81-15.57,1.55s-14.38,1.55-14.53,1.7c-.44.44-2,21.32-1.62,21.69.22.22,7.08,2.14,15.34,4.21l14.91,3.91,1.7,8.78c.88,4.87,1.84,9.37,2.06,10,.3.81-3.17,3.69-12.47,10.26-7.08,5-12.91,9.44-12.91,9.74a101.94,101.94,0,0,0,4.35,9.37c2.37,4.87,4.43,9.22,4.58,9.66s5.9-.81,15.79-3.54c8.49-2.43,15.5-4.35,15.5-4.28.15.67,6.57,8.34,9.45,11.29l3.61,3.84-6.64,14.61L501.79,612l8.93,6.12c4.94,3.4,9.15,6.13,9.44,6.13s5.39-5,11.37-11.22c10.4-10.62,10.92-11.14,12.83-10.4,1,.44,5.24,1.92,9.3,3.25s7.46,2.51,7.6,2.58,1,7.23,1.85,15.94l1.62,15.72,4.8.44c2.66.3,7.6.66,11.07,1l6.27.51,2.14-8.33c1.11-4.58,3-11.51,3.91-15.5l1.92-7.09,5.76-.88a95.67,95.67,0,0,0,9.66-1.85,15.84,15.84,0,0,1,4.43-.66c.22.15,4.58,6,9.52,12.91s9.22,12.4,9.52,12.32c6.12-2.43,19.18-9.22,19.18-9.88s-1.84-7.53-4.13-15.5-4-14.54-3.84-14.69,2.22-1.77,4.65-3.69,5.83-4.87,7.53-6.42l3-2.95,14,6.35c7.6,3.47,14.24,6.34,14.61,6.34s3.62-4,7-9l6.2-9L690.4,563.38l-11.52-11.07,1.77-4.06c1-2.21,2.43-6.42,3.32-9.22a39.81,39.81,0,0,1,1.84-5.46c.15-.15,7.3-1,15.94-1.85l15.72-1.55.81-10.7c.44-5.9.66-10.92.37-11.21s-7.09-2.14-15.13-4.21-14.83-3.91-15-4.06a29.74,29.74,0,0,1-1-4.94c-.44-2.59-1.25-7-1.91-9.74a24,24,0,0,1-1-5.24c.14-.08,6-4.28,13-9.23l12.7-9-1.7-3.83c-4.87-10.78-7.53-15.94-8.27-16-.44,0-7.38,1.84-15.5,4.13l-14.68,4.06-1.33-1.7c-.74-1-3.62-4.28-6.27-7.46s-5-6-5.17-6.34,2.66-6.79,6.13-14.39,6.27-14.1,6.27-14.32-4.13-3.24-9.08-6.64l-9-6.12-11.21,11.44L629.44,416.1,624.27,414a98.76,98.76,0,0,0-9.59-3.32l-4.35-1.26L608.85,394c-.81-8.49-1.7-15.64-2-15.94-.66-.74-21-2.06-21.55-1.47-.3.22-2.21,7.23-4.35,15.42l-3.84,15-4.35.51a80.51,80.51,0,0,0-9.37,1.63c-2.8.66-5.31,1.18-5.68,1.18-.59,0-18.45-24.5-18.45-25.31,0-.22,5,2.07,11.14,5.09s11.22,5.46,11.37,5.46,3.1-4,6.64-8.86l6.42-8.85-11-11.59-11-11.51,2.73-6.71a93,93,0,0,0,3.25-9.15c.3-1.4.88-2.58,1.33-2.73s7.67-.81,15.93-1.48,15.2-1.25,15.35-1.33c.44-.44,2.51-21.4,2.14-21.76s-7.16-2.29-15.35-4.58l-15-4.2-.22-2.51c-.22-2.66-2.07-13.28-2.8-15.86-.37-1.26,1.55-2.8,12.91-10.48l13.21-9-4.43-10c-2.5-5.46-4.87-10-5.38-10s-7.3,1.62-15.2,3.68-14.54,3.69-14.76,3.69a15.91,15.91,0,0,1-2.8-3.32c-1.33-1.84-4.21-5.38-6.35-7.82l-3.91-4.5,6.57-13.58c3.62-7.45,6.64-13.94,6.71-14.38.23-.89-16.08-13.21-17.48-13.21-.37,0-5.54,4.8-11.44,10.7S506.74,217,506.22,217a12.5,12.5,0,0,1-3.69-1.4c-1.47-.74-5.46-2.29-8.71-3.4l-6.05-2-.44-4.57c-.22-2.44-.81-9.52-1.25-15.57s-1-11.29-1.26-11.51c-.52-.45-17.19-2.14-20.44-2.14C463.12,176.36,462.38,178.2,458.91,191Zm15.5,41.1a78.22,78.22,0,0,1,11.66,151.12c-39.18,13.5-82.27-6.35-98.06-45a81.58,81.58,0,0,1-2.88-49.66,101,101,0,0,1,10.77-23.39c8.63-13.14,24.87-25.39,40.29-30.48a84.66,84.66,0,0,1,38.22-2.58Zm62,151.27,2.22,1.18-9.82,4.8c-5.38,2.65-9.89,4.94-10,5s1.77,6.94,4.13,15.35L527.24,425l-5.6,4.42a96.19,96.19,0,0,0-7.75,6.64l-2.07,2.22-3.25-1.63a10.42,10.42,0,0,1-3.24-1.91c0-.3,4.5-2.44,10-4.8s10-4.5,10-4.65-1.62-6.79-3.69-14.69-3.69-14.75-3.69-15.34,2.21-2.66,5-4.73a64.06,64.06,0,0,0,7.08-6C532.48,381.93,533.29,381.78,536.39,383.34Zm70.4,50.1c13,3.83,23.61,9.81,32.76,18.52,18,17.12,26.86,40.36,24.42,64.34-2.8,27.6-18.67,50.54-43.16,62.57q-21.15,10.29-42.65,8c-44.57-5.09-75.93-44.72-69.8-88.47,4-29.3,24.5-54.24,52.09-63.46,10.11-3.39,14.39-4,27.52-3.69,10.55.22,13.06.52,18.82,2.22Z"/><path id="Path_4" data-name="Path 4" class="cls-1" d="M806.38,316.41l-3.91,15.5-5.61.88c-3.1.45-7.52,1.33-10,1.92a20.27,20.27,0,0,1-4.5.89c-.07-.15-4.06-5.68-8.85-12.4s-8.93-12.47-9.23-12.77c-.81-.88-20.73,8.78-20.29,10,.74,2.07,8.41,29.67,8.27,29.81-5.24,4.06-9.67,7.75-12.1,10.11l-3.1,2.95L723,356.84c-7.75-3.46-14.31-6.34-14.68-6.34s-3.4,4.06-6.72,8.93l-6.12,9,11.29,11.14L718,390.71,716.73,394c-.74,1.85-2.14,6-3.17,9.22s-2,6.05-2.14,6.2-7.3,1-15.94,1.85l-15.64,1.55-.52,5.9c-.3,3.25-.66,8.26-1,11.14l-.44,5.24,15.5,3.91,15.5,3.91.52,3.4c.44,3.17,1.84,10.77,2.8,14.83.36,1.7-.67,2.58-12.55,11-7.08,5-12.84,9.37-12.69,9.67,2.58,6.34,9.22,19.18,10,19.18.59,0,7.53-1.84,15.57-4.13l14.54-4.06,1.84,2.36c1,1.33,4,4.87,6.57,7.9l4.65,5.39-6.35,13.87c-3.47,7.68-6.35,14.17-6.35,14.54s4.06,3.47,9.08,6.86l9,6.12,11.14-11.58c10.7-11.14,11.22-11.59,12.91-10.63,1,.52,5.24,2.14,9.52,3.62l7.75,2.65,1.47,15.13c.82,8.27,1.7,15.42,2,15.87s4.42,1,10,1.32c5.24.3,10,.67,10.62.89,1,.22,1.85-2.51,5.09-15.2,3.47-13.5,4.14-15.57,5.46-15.79.89-.15,4.58-.81,8.19-1.48s7.46-1.33,8.49-1.62c1.77-.37,2.58.59,10.7,12,4.87,6.79,9.08,12.62,9.3,13s4.87-1.55,10.33-4.21c7.45-3.69,9.81-5.16,9.67-6.12-.15-.66-2.07-7.6-4.28-15.27l-3.92-14,2.37-1.85c1.25-1,4.72-3.91,7.67-6.49a57.44,57.44,0,0,1,5.75-4.58c.23,0,6.72,2.88,14.47,6.35s14.31,6.05,14.61,5.75,3.17-4.42,6.34-9.07l5.76-8.34-11.29-11.29L904.3,477.56l2.65-7.31c1.48-4,3-8.26,3.33-9.44l.66-2.22L926.51,457c8.63-.88,15.79-1.7,15.94-1.84.37-.44,2-21.47,1.7-21.77s-7.09-2.06-15.5-4.2l-15.13-3.84-.89-5.68c-.44-3.18-1.32-7.68-1.91-10s-.82-4.36-.52-4.65,5.9-4.28,12.4-8.86,12.1-8.56,12.4-8.85c1-.82-8.78-20.74-10-20.3-.52.23-6.94,2.07-14.24,4.06s-13.8,3.91-14.46,4.06c-.82.3-1.85-.52-3-2.36a88.22,88.22,0,0,0-6.49-7.82l-4.58-5,6.35-13.95c3.47-7.74,6.34-14.31,6.34-14.68s-4-3.39-8.92-6.71l-8.93-6.06-11.29,11.22L854.5,341.12l-3.25-1.33c-1.7-.74-6-2.21-9.44-3.32l-6.27-2-1.48-15.79-1.48-15.79-6.27-.52c-3.47-.22-8.48-.66-11.14-1L810.3,301Zm21,41.1c17.12,3.54,34.09,14.09,45.09,27.89,5.53,6.94,12,19.55,14.24,27.82a78.19,78.19,0,0,1-20.88,77c-30.4,29.74-79.77,29.51-109.65-.37-15.5-15.5-23-33.5-23.17-55.19-.15-19.93,6-36.45,19.11-51.95,11.44-13.43,30.47-23.69,48.7-26.19C807.71,355.52,820.11,356,827.41,357.51Z"/></g></g></g></svg>